# Blender v2.93.0 OBJ File: '3DConnect4.blend'
# www.blender.org
mtllib 3DConnect4coin.mtl
o Coin_Cylinder.001
v 0.000000 -0.010000 -0.020000
v 0.000000 0.010000 -0.020000
v 0.003902 -0.010000 -0.019616
v 0.003902 0.010000 -0.019616
v 0.007654 -0.010000 -0.018478
v 0.007654 0.010000 -0.018478
v 0.011111 -0.010000 -0.016629
v 0.011111 0.010000 -0.016629
v 0.014142 -0.010000 -0.014142
v 0.014142 0.010000 -0.014142
v 0.016629 -0.010000 -0.011111
v 0.016629 0.010000 -0.011111
v 0.018478 -0.010000 -0.007654
v 0.018478 0.010000 -0.007654
v 0.019616 -0.010000 -0.003902
v 0.019616 0.010000 -0.003902
v 0.020000 -0.010000 0.000000
v 0.020000 0.010000 0.000000
v 0.019616 -0.010000 0.003902
v 0.019616 0.010000 0.003902
v 0.018478 -0.010000 0.007654
v 0.018478 0.010000 0.007654
v 0.016629 -0.010000 0.011111
v 0.016629 0.010000 0.011111
v 0.014142 -0.010000 0.014142
v 0.014142 0.010000 0.014142
v 0.011111 -0.010000 0.016629
v 0.011111 0.010000 0.016629
v 0.007654 -0.010000 0.018478
v 0.007654 0.010000 0.018478
v 0.003902 -0.010000 0.019616
v 0.003902 0.010000 0.019616
v 0.000000 -0.010000 0.020000
v -0.000000 0.010000 0.020000
v -0.003902 -0.010000 0.019616
v -0.003902 0.010000 0.019616
v -0.007654 -0.010000 0.018478
v -0.007654 0.010000 0.018478
v -0.011111 -0.010000 0.016629
v -0.011111 0.010000 0.016629
v -0.014142 -0.010000 0.014142
v -0.014142 0.010000 0.014142
v -0.016629 -0.010000 0.011111
v -0.016629 0.010000 0.011111
v -0.018478 -0.010000 0.007654
v -0.018478 0.010000 0.007654
v -0.019616 -0.010000 0.003902
v -0.019616 0.010000 0.003902
v -0.020000 -0.010000 -0.000000
v -0.020000 0.010000 -0.000000
v -0.019616 -0.010000 -0.003902
v -0.019616 0.010000 -0.003902
v -0.018478 -0.010000 -0.007654
v -0.018478 0.010000 -0.007654
v -0.016629 -0.010000 -0.011111
v -0.016629 0.010000 -0.011111
v -0.014142 -0.010000 -0.014142
v -0.014142 0.010000 -0.014142
v -0.011111 -0.010000 -0.016629
v -0.011111 0.010000 -0.016629
v -0.007654 -0.010000 -0.018478
v -0.007654 0.010000 -0.018478
v -0.003902 -0.010000 -0.019616
v -0.003902 0.010000 -0.019616
v 0.000000 -0.010000 -0.005500
v 0.000000 0.010000 -0.005500
v 0.001073 -0.010000 -0.005394
v 0.001073 0.010000 -0.005394
v 0.002105 -0.010000 -0.005082
v 0.002105 0.010000 -0.005082
v 0.003056 -0.010000 -0.004573
v 0.003056 0.010000 -0.004573
v 0.003889 -0.010000 -0.003889
v 0.003889 0.010000 -0.003889
v 0.004573 -0.010000 -0.003056
v 0.004573 0.010000 -0.003056
v 0.005082 -0.010000 -0.002105
v 0.005082 0.010000 -0.002105
v 0.005394 -0.010000 -0.001073
v 0.005394 0.010000 -0.001073
v 0.005500 -0.010000 0.000000
v 0.005500 0.010000 0.000000
v 0.005394 -0.010000 0.001073
v 0.005394 0.010000 0.001073
v 0.005082 -0.010000 0.002105
v 0.005082 0.010000 0.002105
v 0.004573 -0.010000 0.003056
v 0.004573 0.010000 0.003056
v 0.003889 -0.010000 0.003889
v 0.003889 0.010000 0.003889
v 0.003056 -0.010000 0.004573
v 0.003056 0.010000 0.004573
v 0.002105 -0.010000 0.005082
v 0.002105 0.010000 0.005082
v 0.001073 -0.010000 0.005394
v 0.001073 0.010000 0.005394
v 0.000000 -0.010000 0.005500
v -0.000000 0.010000 0.005500
v -0.001073 -0.010000 0.005394
v -0.001073 0.010000 0.005394
v -0.002105 -0.010000 0.005082
v -0.002105 0.010000 0.005082
v -0.003056 -0.010000 0.004573
v -0.003056 0.010000 0.004573
v -0.003889 -0.010000 0.003889
v -0.003889 0.010000 0.003889
v -0.004573 -0.010000 0.003056
v -0.004573 0.010000 0.003056
v -0.005082 -0.010000 0.002105
v -0.005082 0.010000 0.002105
v -0.005394 -0.010000 0.001073
v -0.005394 0.010000 0.001073
v -0.005500 -0.010000 -0.000000
v -0.005500 0.010000 -0.000000
v -0.005394 -0.010000 -0.001073
v -0.005394 0.010000 -0.001073
v -0.005082 -0.010000 -0.002105
v -0.005082 0.010000 -0.002105
v -0.004573 -0.010000 -0.003056
v -0.004573 0.010000 -0.003056
v -0.003889 -0.010000 -0.003889
v -0.003889 0.010000 -0.003889
v -0.003056 -0.010000 -0.004573
v -0.003056 0.010000 -0.004573
v -0.002105 -0.010000 -0.005082
v -0.002105 0.010000 -0.005082
v -0.001073 -0.010000 -0.005394
v -0.001073 0.010000 -0.005394
vt 1.000000 1.000000
vt 0.968750 0.500000
vt 1.000000 0.500000
vt 0.968750 1.000000
vt 0.937500 0.500000
vt 0.937500 1.000000
vt 0.906250 0.500000
vt 0.906250 1.000000
vt 0.875000 0.500000
vt 0.875000 1.000000
vt 0.843750 0.500000
vt 0.843750 1.000000
vt 0.812500 0.500000
vt 0.812500 1.000000
vt 0.781250 0.500000
vt 0.781250 1.000000
vt 0.750000 0.500000
vt 0.750000 1.000000
vt 0.718750 0.500000
vt 0.718750 1.000000
vt 0.687500 0.500000
vt 0.687500 1.000000
vt 0.656250 0.500000
vt 0.656250 1.000000
vt 0.625000 0.500000
vt 0.625000 1.000000
vt 0.593750 0.500000
vt 0.593750 1.000000
vt 0.562500 0.500000
vt 0.562500 1.000000
vt 0.531250 0.500000
vt 0.531250 1.000000
vt 0.500000 0.500000
vt 0.500000 1.000000
vt 0.468750 0.500000
vt 0.468750 1.000000
vt 0.437500 0.500000
vt 0.437500 1.000000
vt 0.406250 0.500000
vt 0.406250 1.000000
vt 0.375000 0.500000
vt 0.375000 1.000000
vt 0.343750 0.500000
vt 0.343750 1.000000
vt 0.312500 0.500000
vt 0.312500 1.000000
vt 0.281250 0.500000
vt 0.281250 1.000000
vt 0.250000 0.500000
vt 0.250000 1.000000
vt 0.218750 0.500000
vt 0.218750 1.000000
vt 0.187500 0.500000
vt 0.187500 1.000000
vt 0.156250 0.500000
vt 0.156250 1.000000
vt 0.125000 0.500000
vt 0.125000 1.000000
vt 0.093750 0.500000
vt 0.093750 1.000000
vt 0.062500 0.500000
vt 0.062500 1.000000
vt 0.031250 0.500000
vt 0.031250 1.000000
vt 0.000000 0.500000
vt 0.968750 0.500000
vt 1.000000 1.000000
vt 1.000000 0.500000
vt 0.937500 0.500000
vt 0.968750 1.000000
vt 0.906250 0.500000
vt 0.937500 1.000000
vt 0.875000 0.500000
vt 0.906250 1.000000
vt 0.843750 0.500000
vt 0.875000 1.000000
vt 0.812500 0.500000
vt 0.843750 1.000000
vt 0.781250 0.500000
vt 0.812500 1.000000
vt 0.750000 0.500000
vt 0.781250 1.000000
vt 0.718750 0.500000
vt 0.750000 1.000000
vt 0.687500 0.500000
vt 0.718750 1.000000
vt 0.656250 0.500000
vt 0.687500 1.000000
vt 0.625000 0.500000
vt 0.656250 1.000000
vt 0.593750 0.500000
vt 0.625000 1.000000
vt 0.562500 0.500000
vt 0.593750 1.000000
vt 0.531250 0.500000
vt 0.562500 1.000000
vt 0.500000 0.500000
vt 0.531250 1.000000
vt 0.468750 0.500000
vt 0.500000 1.000000
vt 0.437500 0.500000
vt 0.468750 1.000000
vt 0.406250 0.500000
vt 0.437500 1.000000
vt 0.375000 0.500000
vt 0.406250 1.000000
vt 0.343750 0.500000
vt 0.375000 1.000000
vt 0.312500 0.500000
vt 0.343750 1.000000
vt 0.281250 0.500000
vt 0.312500 1.000000
vt 0.250000 0.500000
vt 0.281250 1.000000
vt 0.218750 0.500000
vt 0.250000 1.000000
vt 0.187500 0.500000
vt 0.218750 1.000000
vt 0.156250 0.500000
vt 0.187500 1.000000
vt 0.125000 0.500000
vt 0.156250 1.000000
vt 0.093750 0.500000
vt 0.125000 1.000000
vt 0.062500 0.500000
vt 0.093750 1.000000
vt 0.031250 0.500000
vt 0.062500 1.000000
vt 0.000000 0.500000
vt 0.031250 1.000000
vt 0.000000 1.000000
vt 0.000000 1.000000
vn 0.0980 0.0000 -0.9952
vn 0.2903 0.0000 -0.9569
vn 0.4714 0.0000 -0.8819
vn 0.6344 0.0000 -0.7730
vn 0.7730 0.0000 -0.6344
vn 0.8819 0.0000 -0.4714
vn 0.9569 0.0000 -0.2903
vn 0.9952 0.0000 -0.0980
vn 0.9952 0.0000 0.0980
vn 0.9569 0.0000 0.2903
vn 0.8819 0.0000 0.4714
vn 0.7730 0.0000 0.6344
vn 0.6344 0.0000 0.7730
vn 0.4714 0.0000 0.8819
vn 0.2903 0.0000 0.9569
vn 0.0980 0.0000 0.9952
vn -0.0980 -0.0000 0.9952
vn -0.2903 0.0000 0.9569
vn -0.4714 0.0000 0.8819
vn -0.6344 0.0000 0.7730
vn -0.7730 0.0000 0.6344
vn -0.8819 0.0000 0.4714
vn -0.9569 0.0000 0.2903
vn -0.9952 0.0000 0.0980
vn -0.9952 0.0000 -0.0980
vn -0.9569 0.0000 -0.2903
vn -0.8819 0.0000 -0.4714
vn -0.7730 0.0000 -0.6344
vn -0.6344 0.0000 -0.7730
vn -0.4714 0.0000 -0.8819
vn -0.2903 0.0000 -0.9569
vn -0.0980 0.0000 -0.9952
vn -0.0978 0.0000 0.9952
vn -0.2902 0.0000 0.9570
vn -0.6343 0.0000 0.7731
vn -0.7731 0.0000 0.6343
vn -0.9570 0.0000 0.2902
vn -0.9952 0.0000 0.0982
vn -0.9952 0.0000 -0.0982
vn -0.9570 0.0000 -0.2902
vn -0.7731 0.0000 -0.6343
vn -0.6343 0.0000 -0.7731
vn -0.2902 0.0000 -0.9570
vn -0.0978 -0.0000 -0.9952
vn 0.0978 0.0000 -0.9952
vn 0.2902 0.0000 -0.9570
vn 0.6343 0.0000 -0.7731
vn 0.7731 0.0000 -0.6343
vn 0.9570 0.0000 -0.2902
vn 0.9952 0.0000 -0.0982
vn 0.9952 0.0000 0.0982
vn 0.9570 0.0000 0.2902
vn 0.7731 0.0000 0.6343
vn 0.6343 0.0000 0.7731
vn 0.2902 0.0000 0.9570
vn 0.0978 0.0000 0.9952
vn 0.0000 -1.0000 0.0000
vn 0.0000 1.0000 0.0000
usemtl WoodL1
s off
f 2/1/1 3/2/1 1/3/1
f 4/4/2 5/5/2 3/2/2
f 6/6/3 7/7/3 5/5/3
f 8/8/4 9/9/4 7/7/4
f 10/10/5 11/11/5 9/9/5
f 12/12/6 13/13/6 11/11/6
f 14/14/7 15/15/7 13/13/7
f 16/16/8 17/17/8 15/15/8
f 18/18/9 19/19/9 17/17/9
f 20/20/10 21/21/10 19/19/10
f 22/22/11 23/23/11 21/21/11
f 24/24/12 25/25/12 23/23/12
f 26/26/13 27/27/13 25/25/13
f 28/28/14 29/29/14 27/27/14
f 30/30/15 31/31/15 29/29/15
f 32/32/16 33/33/16 31/31/16
f 34/34/17 35/35/17 33/33/17
f 36/36/18 37/37/18 35/35/18
f 38/38/19 39/39/19 37/37/19
f 40/40/20 41/41/20 39/39/20
f 42/42/21 43/43/21 41/41/21
f 44/44/22 45/45/22 43/43/22
f 46/46/23 47/47/23 45/45/23
f 48/48/24 49/49/24 47/47/24
f 50/50/25 51/51/25 49/49/25
f 52/52/26 53/53/26 51/51/26
f 54/54/27 55/55/27 53/53/27
f 56/56/28 57/57/28 55/55/28
f 58/58/29 59/59/29 57/57/29
f 60/60/30 61/61/30 59/59/30
f 62/62/31 63/63/31 61/61/31
f 64/64/32 1/65/32 63/63/32
f 67/66/33 66/67/33 65/68/33
f 69/69/34 68/70/34 67/66/34
f 71/71/19 70/72/19 69/69/19
f 73/73/35 72/74/35 71/71/35
f 75/75/36 74/76/36 73/73/36
f 77/77/22 76/78/22 75/75/22
f 79/79/37 78/80/37 77/77/37
f 81/81/38 80/82/38 79/79/38
f 83/83/39 82/84/39 81/81/39
f 85/85/40 84/86/40 83/83/40
f 87/87/27 86/88/27 85/85/27
f 89/89/41 88/90/41 87/87/41
f 91/91/42 90/92/42 89/89/42
f 93/93/30 92/94/30 91/91/30
f 95/95/43 94/96/43 93/93/43
f 97/97/44 96/98/44 95/95/44
f 99/99/45 98/100/45 97/97/45
f 101/101/46 100/102/46 99/99/46
f 103/103/3 102/104/3 101/101/3
f 105/105/47 104/106/47 103/103/47
f 107/107/48 106/108/48 105/105/48
f 109/109/6 108/110/6 107/107/6
f 111/111/49 110/112/49 109/109/49
f 113/113/50 112/114/50 111/111/50
f 115/115/51 114/116/51 113/113/51
f 117/117/52 116/118/52 115/115/52
f 119/119/11 118/120/11 117/117/11
f 121/121/53 120/122/53 119/119/53
f 123/123/54 122/124/54 121/121/54
f 125/125/14 124/126/14 123/123/14
f 127/127/55 126/128/55 125/125/55
f 65/129/56 128/130/56 127/127/56
f 1/3/57 67/66/57 65/68/57
f 2/1/58 68/70/58 4/4/58
f 3/2/57 69/69/57 67/66/57
f 4/4/58 70/72/58 6/6/58
f 7/7/57 69/69/57 5/5/57
f 6/6/58 72/74/58 8/8/58
f 7/7/57 73/73/57 71/71/57
f 8/8/58 74/76/58 10/10/58
f 11/11/57 73/73/57 9/9/57
f 12/12/58 74/76/58 76/78/58
f 13/13/57 75/75/57 11/11/57
f 12/12/58 78/80/58 14/14/58
f 15/15/57 77/77/57 13/13/57
f 16/16/58 78/80/58 80/82/58
f 15/15/57 81/81/57 79/79/57
f 16/16/58 82/84/58 18/18/58
f 19/19/57 81/81/57 17/17/57
f 20/20/58 82/84/58 84/86/58
f 19/19/57 85/85/57 83/83/57
f 20/20/58 86/88/58 22/22/58
f 23/23/57 85/85/57 21/21/57
f 22/22/58 88/90/58 24/24/58
f 23/23/57 89/89/57 87/87/57
f 24/24/58 90/92/58 26/26/58
f 27/27/57 89/89/57 25/25/57
f 28/28/58 90/92/58 92/94/58
f 29/29/57 91/91/57 27/27/57
f 30/30/58 92/94/58 94/96/58
f 31/31/57 93/93/57 29/29/57
f 32/32/58 94/96/58 96/98/58
f 33/33/57 95/95/57 31/31/57
f 34/34/58 96/98/58 98/100/58
f 33/33/57 99/99/57 97/97/57
f 34/34/58 100/102/58 36/36/58
f 35/35/57 101/101/57 99/99/57
f 36/36/58 102/104/58 38/38/58
f 39/39/57 101/101/57 37/37/57
f 38/38/58 104/106/58 40/40/58
f 39/39/57 105/105/57 103/103/57
f 40/40/58 106/108/58 42/42/58
f 43/43/57 105/105/57 41/41/57
f 44/44/58 106/108/58 108/110/58
f 43/43/57 109/109/57 107/107/57
f 44/44/58 110/112/58 46/46/58
f 47/47/57 109/109/57 45/45/57
f 48/48/58 110/112/58 112/114/58
f 47/47/57 113/113/57 111/111/57
f 48/48/58 114/116/58 50/50/58
f 51/51/57 113/113/57 49/49/57
f 52/52/58 114/116/58 116/118/58
f 51/51/57 117/117/57 115/115/57
f 52/52/58 118/120/58 54/54/58
f 53/53/57 119/119/57 117/117/57
f 54/54/58 120/122/58 56/56/58
f 55/55/57 121/121/57 119/119/57
f 56/56/58 122/124/58 58/58/58
f 59/59/57 121/121/57 57/57/57
f 60/60/58 122/124/58 124/126/58
f 61/61/57 123/123/57 59/59/57
f 60/60/58 126/128/58 62/62/58
f 63/63/57 125/125/57 61/61/57
f 64/64/58 126/128/58 128/130/58
f 1/65/57 127/127/57 63/63/57
f 2/131/58 128/130/58 66/132/58
f 2/1/1 4/4/1 3/2/1
f 4/4/2 6/6/2 5/5/2
f 6/6/3 8/8/3 7/7/3
f 8/8/4 10/10/4 9/9/4
f 10/10/5 12/12/5 11/11/5
f 12/12/6 14/14/6 13/13/6
f 14/14/7 16/16/7 15/15/7
f 16/16/8 18/18/8 17/17/8
f 18/18/9 20/20/9 19/19/9
f 20/20/10 22/22/10 21/21/10
f 22/22/11 24/24/11 23/23/11
f 24/24/12 26/26/12 25/25/12
f 26/26/13 28/28/13 27/27/13
f 28/28/14 30/30/14 29/29/14
f 30/30/15 32/32/15 31/31/15
f 32/32/16 34/34/16 33/33/16
f 34/34/17 36/36/17 35/35/17
f 36/36/18 38/38/18 37/37/18
f 38/38/19 40/40/19 39/39/19
f 40/40/20 42/42/20 41/41/20
f 42/42/21 44/44/21 43/43/21
f 44/44/22 46/46/22 45/45/22
f 46/46/23 48/48/23 47/47/23
f 48/48/24 50/50/24 49/49/24
f 50/50/25 52/52/25 51/51/25
f 52/52/26 54/54/26 53/53/26
f 54/54/27 56/56/27 55/55/27
f 56/56/28 58/58/28 57/57/28
f 58/58/29 60/60/29 59/59/29
f 60/60/30 62/62/30 61/61/30
f 62/62/31 64/64/31 63/63/31
f 64/64/32 2/131/32 1/65/32
f 67/66/33 68/70/33 66/67/33
f 69/69/34 70/72/34 68/70/34
f 71/71/19 72/74/19 70/72/19
f 73/73/35 74/76/35 72/74/35
f 75/75/36 76/78/36 74/76/36
f 77/77/22 78/80/22 76/78/22
f 79/79/37 80/82/37 78/80/37
f 81/81/38 82/84/38 80/82/38
f 83/83/39 84/86/39 82/84/39
f 85/85/40 86/88/40 84/86/40
f 87/87/27 88/90/27 86/88/27
f 89/89/41 90/92/41 88/90/41
f 91/91/42 92/94/42 90/92/42
f 93/93/30 94/96/30 92/94/30
f 95/95/43 96/98/43 94/96/43
f 97/97/44 98/100/44 96/98/44
f 99/99/45 100/102/45 98/100/45
f 101/101/46 102/104/46 100/102/46
f 103/103/3 104/106/3 102/104/3
f 105/105/47 106/108/47 104/106/47
f 107/107/48 108/110/48 106/108/48
f 109/109/6 110/112/6 108/110/6
f 111/111/49 112/114/49 110/112/49
f 113/113/50 114/116/50 112/114/50
f 115/115/51 116/118/51 114/116/51
f 117/117/52 118/120/52 116/118/52
f 119/119/11 120/122/11 118/120/11
f 121/121/53 122/124/53 120/122/53
f 123/123/54 124/126/54 122/124/54
f 125/125/14 126/128/14 124/126/14
f 127/127/55 128/130/55 126/128/55
f 65/129/56 66/132/56 128/130/56
f 1/3/57 3/2/57 67/66/57
f 2/1/58 66/67/58 68/70/58
f 3/2/57 5/5/57 69/69/57
f 4/4/58 68/70/58 70/72/58
f 7/7/57 71/71/57 69/69/57
f 6/6/58 70/72/58 72/74/58
f 7/7/57 9/9/57 73/73/57
f 8/8/58 72/74/58 74/76/58
f 11/11/57 75/75/57 73/73/57
f 12/12/58 10/10/58 74/76/58
f 13/13/57 77/77/57 75/75/57
f 12/12/58 76/78/58 78/80/58
f 15/15/57 79/79/57 77/77/57
f 16/16/58 14/14/58 78/80/58
f 15/15/57 17/17/57 81/81/57
f 16/16/58 80/82/58 82/84/58
f 19/19/57 83/83/57 81/81/57
f 20/20/58 18/18/58 82/84/58
f 19/19/57 21/21/57 85/85/57
f 20/20/58 84/86/58 86/88/58
f 23/23/57 87/87/57 85/85/57
f 22/22/58 86/88/58 88/90/58
f 23/23/57 25/25/57 89/89/57
f 24/24/58 88/90/58 90/92/58
f 27/27/57 91/91/57 89/89/57
f 28/28/58 26/26/58 90/92/58
f 29/29/57 93/93/57 91/91/57
f 30/30/58 28/28/58 92/94/58
f 31/31/57 95/95/57 93/93/57
f 32/32/58 30/30/58 94/96/58
f 33/33/57 97/97/57 95/95/57
f 34/34/58 32/32/58 96/98/58
f 33/33/57 35/35/57 99/99/57
f 34/34/58 98/100/58 100/102/58
f 35/35/57 37/37/57 101/101/57
f 36/36/58 100/102/58 102/104/58
f 39/39/57 103/103/57 101/101/57
f 38/38/58 102/104/58 104/106/58
f 39/39/57 41/41/57 105/105/57
f 40/40/58 104/106/58 106/108/58
f 43/43/57 107/107/57 105/105/57
f 44/44/58 42/42/58 106/108/58
f 43/43/57 45/45/57 109/109/57
f 44/44/58 108/110/58 110/112/58
f 47/47/57 111/111/57 109/109/57
f 48/48/58 46/46/58 110/112/58
f 47/47/57 49/49/57 113/113/57
f 48/48/58 112/114/58 114/116/58
f 51/51/57 115/115/57 113/113/57
f 52/52/58 50/50/58 114/116/58
f 51/51/57 53/53/57 117/117/57
f 52/52/58 116/118/58 118/120/58
f 53/53/57 55/55/57 119/119/57
f 54/54/58 118/120/58 120/122/58
f 55/55/57 57/57/57 121/121/57
f 56/56/58 120/122/58 122/124/58
f 59/59/57 123/123/57 121/121/57
f 60/60/58 58/58/58 122/124/58
f 61/61/57 125/125/57 123/123/57
f 60/60/58 124/126/58 126/128/58
f 63/63/57 127/127/57 125/125/57
f 64/64/58 62/62/58 126/128/58
f 1/65/57 65/129/57 127/127/57
f 2/131/58 64/64/58 128/130/58
